<mxfile host="Electron" agent="Mozilla/5.0 (Windows NT 10.0; Win64; x64) AppleWebKit/537.36 (KHTML, like Gecko) draw.io/27.0.9 Chrome/134.0.6998.205 Electron/35.4.0 Safari/537.36" version="27.0.9">
  <diagram name="Page-1" id="wNV9wTQvoZIU08BvQn_S">
    <mxGraphModel dx="1245" dy="516" grid="1" gridSize="10" guides="1" tooltips="1" connect="1" arrows="1" fold="1" page="1" pageScale="1" pageWidth="850" pageHeight="1100" math="0" shadow="0">
      <root>
        <mxCell id="0" />
        <mxCell id="1" parent="0" />
        <mxCell id="-3yYCdMvbxN44f0MHw6B-4" value="" style="edgeStyle=orthogonalEdgeStyle;rounded=0;orthogonalLoop=1;jettySize=auto;html=1;" edge="1" parent="1" source="-3yYCdMvbxN44f0MHw6B-2" target="-3yYCdMvbxN44f0MHw6B-3">
          <mxGeometry relative="1" as="geometry" />
        </mxCell>
        <mxCell id="-3yYCdMvbxN44f0MHw6B-2" value="racingGear (driverCount, driverName, helmetSize, suitSize, shoeSize, helmetPrice, suitPrice, shoePrice, gearPrice)" style="strokeWidth=2;html=1;shape=mxgraph.flowchart.terminator;whiteSpace=wrap;fillColor=#d80073;fontColor=#ffffff;strokeColor=#A50040;" vertex="1" parent="1">
          <mxGeometry x="120" y="80" width="216.67" height="120" as="geometry" />
        </mxCell>
        <mxCell id="-3yYCdMvbxN44f0MHw6B-6" value="" style="edgeStyle=orthogonalEdgeStyle;rounded=0;orthogonalLoop=1;jettySize=auto;html=1;" edge="1" parent="1" source="-3yYCdMvbxN44f0MHw6B-3" target="-3yYCdMvbxN44f0MHw6B-5">
          <mxGeometry relative="1" as="geometry" />
        </mxCell>
        <mxCell id="-3yYCdMvbxN44f0MHw6B-3" value="&lt;font style=&quot;&quot;&gt;totalGearPrice = 0&lt;/font&gt;" style="whiteSpace=wrap;html=1;fillColor=#FA6800;strokeColor=#C73500;fontColor=#000000;strokeWidth=2;" vertex="1" parent="1">
          <mxGeometry x="168.33499999999998" y="241" width="120" height="60" as="geometry" />
        </mxCell>
        <mxCell id="-3yYCdMvbxN44f0MHw6B-10" style="edgeStyle=orthogonalEdgeStyle;rounded=0;orthogonalLoop=1;jettySize=auto;html=1;exitX=1;exitY=0.5;exitDx=0;exitDy=0;" edge="1" parent="1" source="-3yYCdMvbxN44f0MHw6B-5">
          <mxGeometry relative="1" as="geometry">
            <mxPoint x="360" y="415" as="targetPoint" />
          </mxGeometry>
        </mxCell>
        <mxCell id="-3yYCdMvbxN44f0MHw6B-12" value="True" style="edgeLabel;html=1;align=center;verticalAlign=middle;resizable=0;points=[];" vertex="1" connectable="0" parent="-3yYCdMvbxN44f0MHw6B-10">
          <mxGeometry x="-0.3289" y="-2" relative="1" as="geometry">
            <mxPoint y="-3" as="offset" />
          </mxGeometry>
        </mxCell>
        <mxCell id="-3yYCdMvbxN44f0MHw6B-11" style="edgeStyle=orthogonalEdgeStyle;rounded=0;orthogonalLoop=1;jettySize=auto;html=1;exitX=0.5;exitY=1;exitDx=0;exitDy=0;" edge="1" parent="1" source="-3yYCdMvbxN44f0MHw6B-5">
          <mxGeometry relative="1" as="geometry">
            <mxPoint x="229" y="860" as="targetPoint" />
          </mxGeometry>
        </mxCell>
        <mxCell id="-3yYCdMvbxN44f0MHw6B-13" value="False" style="edgeLabel;html=1;align=center;verticalAlign=middle;resizable=0;points=[];" vertex="1" connectable="0" parent="-3yYCdMvbxN44f0MHw6B-11">
          <mxGeometry x="-0.1252" y="2" relative="1" as="geometry">
            <mxPoint x="-4" as="offset" />
          </mxGeometry>
        </mxCell>
        <mxCell id="-3yYCdMvbxN44f0MHw6B-5" value="i = 0,&lt;div&gt;i &amp;lt; driverCount,&lt;/div&gt;&lt;div&gt;i++&lt;/div&gt;" style="rhombus;whiteSpace=wrap;html=1;fillColor=#6A00FF;strokeColor=#3700CC;fontColor=#ffffff;strokeWidth=2;" vertex="1" parent="1">
          <mxGeometry x="173.33" y="360" width="111.67" height="110" as="geometry" />
        </mxCell>
        <mxCell id="-3yYCdMvbxN44f0MHw6B-18" value="return totalGearPrice" style="strokeWidth=2;html=1;shape=mxgraph.flowchart.terminator;whiteSpace=wrap;strokeColor=#A50040;align=center;verticalAlign=middle;fontFamily=Helvetica;fontSize=12;fontColor=#ffffff;fillColor=#d80073;" vertex="1" parent="1">
          <mxGeometry x="179.17000000000002" y="860" width="100" height="60" as="geometry" />
        </mxCell>
        <mxCell id="-3yYCdMvbxN44f0MHw6B-22" value="" style="edgeStyle=orthogonalEdgeStyle;rounded=0;orthogonalLoop=1;jettySize=auto;html=1;fontFamily=Helvetica;fontSize=12;fontColor=#ffffff;" edge="1" parent="1" source="-3yYCdMvbxN44f0MHw6B-19" target="-3yYCdMvbxN44f0MHw6B-21">
          <mxGeometry relative="1" as="geometry" />
        </mxCell>
        <mxCell id="-3yYCdMvbxN44f0MHw6B-19" value="helmetPrice[i] = selectHelmet (i, helmetSize, helmetPrice)" style="whiteSpace=wrap;html=1;fillColor=#FA6800;strokeColor=#C73500;fontColor=#ffffff;strokeWidth=2;" vertex="1" parent="1">
          <mxGeometry x="360.84" y="385" width="159.17" height="60" as="geometry" />
        </mxCell>
        <mxCell id="-3yYCdMvbxN44f0MHw6B-24" value="" style="edgeStyle=orthogonalEdgeStyle;rounded=0;orthogonalLoop=1;jettySize=auto;html=1;fontFamily=Helvetica;fontSize=12;fontColor=#ffffff;" edge="1" parent="1" source="-3yYCdMvbxN44f0MHw6B-21" target="-3yYCdMvbxN44f0MHw6B-23">
          <mxGeometry relative="1" as="geometry" />
        </mxCell>
        <mxCell id="-3yYCdMvbxN44f0MHw6B-21" value="suitPrice[i] = selectSuit (i, suitSize, suitPrice)" style="whiteSpace=wrap;html=1;fillColor=#FA6800;strokeColor=#C73500;fontColor=#ffffff;strokeWidth=2;" vertex="1" parent="1">
          <mxGeometry x="360" y="480" width="160" height="60" as="geometry" />
        </mxCell>
        <mxCell id="-3yYCdMvbxN44f0MHw6B-26" value="" style="edgeStyle=orthogonalEdgeStyle;rounded=0;orthogonalLoop=1;jettySize=auto;html=1;fontFamily=Helvetica;fontSize=12;fontColor=#ffffff;" edge="1" parent="1" source="-3yYCdMvbxN44f0MHw6B-23" target="-3yYCdMvbxN44f0MHw6B-25">
          <mxGeometry relative="1" as="geometry" />
        </mxCell>
        <mxCell id="-3yYCdMvbxN44f0MHw6B-23" value="shoePrice[i] = selectShoe (i, shoeSize, shoePrice)" style="whiteSpace=wrap;html=1;fillColor=#FA6800;strokeColor=#C73500;fontColor=#ffffff;strokeWidth=2;" vertex="1" parent="1">
          <mxGeometry x="360" y="580" width="160" height="60" as="geometry" />
        </mxCell>
        <mxCell id="-3yYCdMvbxN44f0MHw6B-28" value="" style="edgeStyle=orthogonalEdgeStyle;rounded=0;orthogonalLoop=1;jettySize=auto;html=1;fontFamily=Helvetica;fontSize=12;fontColor=#ffffff;" edge="1" parent="1" source="-3yYCdMvbxN44f0MHw6B-25" target="-3yYCdMvbxN44f0MHw6B-27">
          <mxGeometry relative="1" as="geometry" />
        </mxCell>
        <mxCell id="-3yYCdMvbxN44f0MHw6B-25" value="gearPrice[i] = helmetPrice[i] + suitPrice[i] + shoePrice[i]" style="whiteSpace=wrap;html=1;fillColor=#FA6800;strokeColor=#C73500;fontColor=#ffffff;strokeWidth=2;" vertex="1" parent="1">
          <mxGeometry x="360" y="680" width="160" height="60" as="geometry" />
        </mxCell>
        <mxCell id="-3yYCdMvbxN44f0MHw6B-27" value="totalGearPrice += gearPrice[i]" style="whiteSpace=wrap;html=1;fillColor=#FA6800;strokeColor=#C73500;fontColor=#ffffff;strokeWidth=2;" vertex="1" parent="1">
          <mxGeometry x="350" y="770" width="180" height="60" as="geometry" />
        </mxCell>
      </root>
    </mxGraphModel>
  </diagram>
</mxfile>
